<svg xmlns="http://www.w3.org/2000/svg" width="58.931" height="75.074" viewBox="0 0 58.931 75.074">
  <path id="door" d="M61.646.5H9.047A3.227,3.227,0,0,0,5.8,3.688v68.7a3.227,3.227,0,0,0,3.247,3.188H61.484a3.227,3.227,0,0,0,3.247-3.188V3.688A3.2,3.2,0,0,0,61.646.5ZM20.573,41.783a3.247,3.247,0,0,1-6.494,0V40.348a3.247,3.247,0,0,1,6.494,0Zm33.28-5.419a3.247,3.247,0,0,1-6.494,0V18.193H40.866a3.188,3.188,0,1,1,0-6.376h9.741A3.227,3.227,0,0,1,53.854,15Z" transform="translate(-5.8 -0.5)" fill="#fff"/>
</svg>
