<svg xmlns="http://www.w3.org/2000/svg" width="44.312" height="33.33" viewBox="0 0 44.312 33.33">
  <g id="Group_262" data-name="Group 262" transform="translate(-14 9)">
    <path id="Path_4" data-name="Path 4" d="M36.042,31.38H21.5L36.042,53.6V31.38Z" transform="translate(0.114 -29.267)" fill="#0d79aa"/>
    <path id="Path_5" data-name="Path 5" d="M62.54,31.38H77.082L62.54,53.6V31.38Z" transform="translate(-26.391 -29.267)" fill="#338eb8"/>
    <path id="Path_6" data-name="Path 6" d="M22.156,11.113V0H11.078L0,11.113Z" transform="translate(14 -9)" fill="#80d8f1"/>
    <path id="Path_7" data-name="Path 7" d="M84.716,11.113,73.638,0H62.56V11.113Z" transform="translate(-26.404 -9)" fill="#4ccaf4"/>
    <path id="Path_8" data-name="Path 8" d="M77.082,11.113,66,0H62.54V11.113Z" transform="translate(-26.391 -9)" fill="#26bef1"/>
    <path id="Path_9" data-name="Path 9" d="M21.5,11.113,32.578,0h3.464V11.113Z" transform="translate(0.114 -9)" fill="#4ac7eb"/>
    <path id="Path_10" data-name="Path 10" d="M62.54,18.043H77.082L69.793,10.73Z" transform="translate(-26.391 -15.93)" fill="#00b3ef"/>
    <path id="Path_11" data-name="Path 11" d="M21.5,18.043H36.042L28.789,10.73Z" transform="translate(0.114 -15.93)" fill="#65cfee"/>
  </g>
</svg>
