<svg xmlns="http://www.w3.org/2000/svg" width="31.258" height="19.536" viewBox="0 0 31.258 19.536">
  <path id="google-plus-g" d="M31.79,72.369a8.286,8.286,0,0,1,.16,1.626c0,5.584-3.745,9.542-9.382,9.542a9.768,9.768,0,1,1,0-19.536,9.33,9.33,0,0,1,6.543,2.559L26.459,69.1A5.485,5.485,0,0,0,22.568,67.6a6.171,6.171,0,0,0,0,12.34,5.291,5.291,0,0,0,5.544-4.211H22.568V72.369H31.79Zm9.433.327V69.861H38.373V72.7H35.538v2.849h2.835v2.835h2.849V75.545h2.835V72.7Z" transform="translate(-12.8 -64)" fill="#fff"/>
</svg>
