<svg id="callback" xmlns="http://www.w3.org/2000/svg" width="22.521" height="24.681" viewBox="0 0 22.521 24.681">
  <path id="Path_57" data-name="Path 57" d="M27.521,11.523H23.158l1.454-1.454A10.284,10.284,0,0,0,7.057,17.34,1.028,1.028,0,0,1,5,17.34,12.34,12.34,0,0,1,26.066,8.614h0L27.521,7.16Z" transform="translate(-5 -5)" fill="#006da5"/>
  <path id="Path_58" data-name="Path 58" d="M47.257,87.5a1.028,1.028,0,1,1-1.028,1.028A1.029,1.029,0,0,1,47.257,87.5Z" transform="translate(-34.923 -64.876)" fill="#006da5"/>
  <path id="Path_59" data-name="Path 59" d="M63.043,84.383a1.028,1.028,0,1,1-1.028,1.028A1.029,1.029,0,0,1,63.043,84.383Z" transform="translate(-46.38 -62.614)" fill="#006da5"/>
  <path id="Path_60" data-name="Path 60" d="M76.448,75.42a1.028,1.028,0,1,1-1.028,1.028A1.029,1.029,0,0,1,76.448,75.42Z" transform="translate(-56.109 -56.109)" fill="#006da5"/>
  <path id="Path_61" data-name="Path 61" d="M31.473,84.363a1.028,1.028,0,1,1-1.028,1.028A1.029,1.029,0,0,1,31.473,84.363Z" transform="translate(-23.467 -62.599)" fill="#006da5"/>
  <path id="Path_62" data-name="Path 62" d="M18.1,75.42a1.028,1.028,0,1,1-1.028,1.028A1.029,1.029,0,0,1,18.1,75.42Z" transform="translate(-13.764 -56.109)" fill="#006da5"/>
  <path id="Path_63" data-name="Path 63" d="M9.158,62.04A1.028,1.028,0,1,1,8.13,63.068,1.029,1.029,0,0,1,9.158,62.04Z" transform="translate(-7.272 -46.398)" fill="#006da5"/>
  <path id="Path_65" data-name="Path 65" d="M10.384,53.857a.956.956,0,0,0-1.446,0c-.338.335-.676.67-1.008,1.011a.2.2,0,0,1-.278.051c-.219-.119-.452-.216-.662-.347a10.487,10.487,0,0,1-2.528-2.3,5.99,5.99,0,0,1-.906-1.452.208.208,0,0,1,.051-.267c.338-.327.668-.662,1-1a.96.96,0,0,0,0-1.48c-.264-.267-.528-.528-.793-.8s-.543-.548-.818-.818a.963.963,0,0,0-1.446,0c-.341.335-.668.679-1.014,1.008a1.646,1.646,0,0,0-.517,1.111,4.706,4.706,0,0,0,.364,2.025,12.308,12.308,0,0,0,2.185,3.639,13.518,13.518,0,0,0,4.477,3.5,6.475,6.475,0,0,0,2.48.722,1.817,1.817,0,0,0,1.56-.594c.29-.324.616-.619.923-.929a.966.966,0,0,0,.006-1.471Q11.2,54.666,10.384,53.857Z" transform="translate(6.329 -39.69)" fill="#006da5"/>
</svg>
