<svg xmlns="http://www.w3.org/2000/svg" width="19.541" height="19.536" viewBox="0 0 19.541 19.536">
  <path id="instagram" d="M9.7,36.584a5.009,5.009,0,1,0,5.009,5.009A5,5,0,0,0,9.7,36.584Zm0,8.265a3.256,3.256,0,1,1,3.256-3.256A3.262,3.262,0,0,1,9.7,44.85Zm6.382-8.47a1.168,1.168,0,1,1-1.168-1.168A1.166,1.166,0,0,1,16.08,36.379ZM19.4,37.565a5.782,5.782,0,0,0-1.578-4.093,5.82,5.82,0,0,0-4.093-1.578c-1.613-.092-6.447-.092-8.06,0a5.811,5.811,0,0,0-4.093,1.574A5.8,5.8,0,0,0-.006,37.561c-.092,1.613-.092,6.447,0,8.06a5.782,5.782,0,0,0,1.578,4.093,5.827,5.827,0,0,0,4.093,1.578c1.613.092,6.447.092,8.06,0a5.782,5.782,0,0,0,4.093-1.578A5.82,5.82,0,0,0,19.4,45.621c.092-1.613.092-6.443,0-8.056Zm-2.084,9.787a3.3,3.3,0,0,1-1.857,1.857c-1.286.51-4.338.392-5.759.392s-4.477.113-5.759-.392a3.3,3.3,0,0,1-1.857-1.857c-.51-1.286-.392-4.338-.392-5.759s-.113-4.477.392-5.759a3.3,3.3,0,0,1,1.857-1.857c1.286-.51,4.338-.392,5.759-.392s4.477-.113,5.759.392a3.3,3.3,0,0,1,1.857,1.857c.51,1.286.392,4.338.392,5.759S17.823,46.07,17.313,47.352Z" transform="translate(0.075 -31.825)" fill="#fff"/>
</svg>
