<svg id="_360" data-name="360" xmlns="http://www.w3.org/2000/svg" width="94.6" height="59.35" viewBox="0 0 94.6 59.35">
  <path id="Path_85" data-name="Path 85" d="M103.587,68.067c0-.027.018-.051.018-.079V38.566a6.8,6.8,0,0,1-.629,2.324c-.034.075-.068.151-.106.226a8.384,8.384,0,0,1-.573.972c-.031.049-.059.1-.092.146a11.16,11.16,0,0,1-.855,1.058c-3.361,3.689-10.307,6.828-19.964,8.88v0c-.313.068-.613.139-.934.2a1.193,1.193,0,0,1-.234.024,1.152,1.152,0,0,1-1.131-.906c-.007-.037,0-.073,0-.111v0a1.127,1.127,0,0,1,.9-1.23c12.971-2.616,21.351-7.349,21.351-12.061a4.284,4.284,0,0,0-.163-1.144,1.241,1.241,0,0,1-.012-.13c-1.347-4.2-9.254-8.423-21.528-10.866l-5.915-.988A128.273,128.273,0,0,0,56.37,23.832c-26.422,0-44.321,7.1-44.984,13.87h0c-.013.129-.031.26-.031.389,0,4.711,8.381,9.445,21.35,12.061a1.124,1.124,0,0,1,.9,1.225v0a.985.985,0,0,1,0,.117,1.152,1.152,0,0,1-1.131.906,1.172,1.172,0,0,1-.233-.024c-.319-.065-.62-.136-.934-.2v0C21.676,50.125,14.74,47,11.367,43.322a7.955,7.955,0,0,1-2.282-4.768V67.988a1.061,1.061,0,0,0,.032.158c-.009.052-.038.1-.044.155-.018.194-.025.386-.025.579,0,6.01,8.664,11.348,23.175,14.278a1.172,1.172,0,0,0,.233.024,1.151,1.151,0,0,0,1.131-.906,1.114,1.114,0,0,0,0-.152,1.173,1.173,0,0,0,.031-.156V56.617a123.539,123.539,0,0,1,22.616-2,123.35,123.35,0,0,1,22.84,2.04V81.966a.9.9,0,0,0,.033.156.834.834,0,0,0,0,.152,1.157,1.157,0,0,0,1.363.882c14.511-2.93,23.176-8.268,23.176-14.278A6,6,0,0,0,103.587,68.067ZM31.309,80.637C19.147,77.97,11.358,73.417,11.358,68.88c0-.125.006-.251.017-.375a1.128,1.128,0,0,0-.028-.257,1.093,1.093,0,0,0,.053-.26v-.721a1.128,1.128,0,0,0,.312-.38c2.009-4.094,9.409-7.6,19.6-9.8V80.637Zm50.076,0v-23.5c11.342,2.477,19.131,6.545,19.82,11.142a1.168,1.168,0,0,0,.111.32c.007.1.023.189.023.283C101.338,73.417,93.549,77.97,81.385,80.637Z" transform="translate(-9.048 -23.832)" fill="#fff"/>
  <ellipse id="Ellipse_1" data-name="Ellipse 1" cx="1.961" cy="1.926" rx="1.961" ry="1.926" transform="translate(36.151 4.597)" fill="#fff"/>
  <text id="_360-2" data-name="360" transform="translate(46.863 24)" fill="#00a8e7" font-size="22" font-family="SegoeUI-Bold, Segoe UI" font-weight="700"><tspan x="-18.981" y="0">360</tspan></text>
</svg>
