<svg xmlns="http://www.w3.org/2000/svg" width="125.428" height="56.723" viewBox="0 0 125.428 56.723">
  <g id="Gallery" transform="translate(-15 -147.012)">
    <path id="Path_88" data-name="Path 88" d="M185.6,203.735a7.816,7.816,0,0,0,7.807-7.807V154.819a7.816,7.816,0,0,0-7.807-7.807H133.284a7.816,7.816,0,0,0-7.807,7.807v41.109a7.816,7.816,0,0,0,7.807,7.807H185.6Z" transform="translate(-81.728)" fill="#fff"/>
    <path id="Path_89" data-name="Path 89" d="M72.84,218.658a2.6,2.6,0,0,0,2.6-2.6V180.733a2.6,2.6,0,1,0-5.2,0v35.322A2.6,2.6,0,0,0,72.84,218.658Z" transform="translate(-40.864 -23.021)" fill="#fff"/>
    <path id="Path_90" data-name="Path 90" d="M20.2,205.852a2.6,2.6,0,0,0-5.2,0V228.1a2.6,2.6,0,1,0,5.2,0Z" transform="translate(0 -41.604)" fill="#fff"/>
    <path id="Path_91" data-name="Path 91" d="M424.364,218.658a2.6,2.6,0,0,0,2.6-2.6V180.733a2.6,2.6,0,1,0-5.2,0v35.322A2.6,2.6,0,0,0,424.364,218.658Z" transform="translate(-300.913 -23.021)" fill="#fff"/>
    <path id="Path_92" data-name="Path 92" d="M479.6,203.25a2.6,2.6,0,0,0-2.6,2.6V228.1a2.6,2.6,0,1,0,5.2,0V205.852A2.6,2.6,0,0,0,479.6,203.25Z" transform="translate(-341.776 -41.604)" fill="#fff"/>
  </g>
</svg>
