<svg xmlns="http://www.w3.org/2000/svg" width="65.398" height="74.918" viewBox="0 0 65.398 74.918">
  <g id="brochure" transform="translate(-12.5 -7.041)">
    <path id="Path_93" data-name="Path 93" d="M53.058,7.041,68.835,21.87l1.175,1.257V57.452l13.08.851V9.447Z" transform="translate(-5.193)" fill="#fff"/>
    <path id="Path_94" data-name="Path 94" d="M47.5,8.552V17.92L61.466,21.44Z" transform="translate(-4.481 -0.193)" fill="#fff"/>
    <path id="Path_95" data-name="Path 95" d="M37.5,70.852l26.16,6.514V28.5L37.5,21.984Zm3.738-28.263L59.922,47.3v2.97L41.237,45.56Zm0,5.935,18.685,4.72v2.972L41.237,51.5Zm0,5.946,18.685,4.709v2.971L41.237,57.441Zm0,5.943,18.685,4.709v2.972L41.237,63.384Z" transform="translate(-3.201 -1.913)" fill="#fff"/>
    <path id="Path_96" data-name="Path 96" d="M12.5,83.94,29.939,71.38V22.512L12.5,35.082Z" transform="translate(0 -1.981)" fill="#fff"/>
  </g>
</svg>
