<svg id="telephone" xmlns="http://www.w3.org/2000/svg" width="21.582" height="21.583" viewBox="0 0 21.582 21.583">
  <g id="Group_6" data-name="Group 6">
    <path id="Path_46" data-name="Path 46" d="M16.414,58.343a1.512,1.512,0,0,0-2.286,0c-.534.53-1.069,1.06-1.594,1.6a.315.315,0,0,1-.44.081c-.346-.189-.714-.341-1.046-.548a16.58,16.58,0,0,1-4-3.638,9.47,9.47,0,0,1-1.433-2.295A.329.329,0,0,1,5.7,53.12c.534-.516,1.055-1.046,1.581-1.576a1.518,1.518,0,0,0,0-2.34c-.418-.422-.835-.835-1.253-1.258s-.858-.867-1.293-1.293a1.522,1.522,0,0,0-2.286,0c-.539.53-1.055,1.073-1.6,1.594a2.6,2.6,0,0,0-.817,1.756,7.44,7.44,0,0,0,.575,3.2A19.458,19.458,0,0,0,4.05,58.963,21.372,21.372,0,0,0,11.128,64.5a10.236,10.236,0,0,0,3.921,1.141,2.873,2.873,0,0,0,2.466-.939c.458-.512.975-.979,1.46-1.469a1.528,1.528,0,0,0,.009-2.326Q17.7,59.62,16.414,58.343Z" transform="translate(-0.006 -44.065)" fill="#00a8e7"/>
    <path id="Path_47" data-name="Path 47" d="M242.722,102.386l1.657-.283a7.439,7.439,0,0,0-6.292-6.1l-.234,1.666a5.749,5.749,0,0,1,4.868,4.72Z" transform="translate(-227.172 -91.688)" fill="#00a8e7"/>
    <path id="Path_48" data-name="Path 48" d="M249.994,3.494A12.22,12.22,0,0,0,242.988,0l-.234,1.666a10.663,10.663,0,0,1,9.023,8.744l1.657-.283A12.31,12.31,0,0,0,249.994,3.494Z" transform="translate(-231.852)" fill="#00a8e7"/>
  </g>
</svg>
