<svg xmlns="http://www.w3.org/2000/svg" width="24.054" height="19.536" viewBox="0 0 24.054 19.536">
  <path id="twitter" d="M21.581,52.951c.015.214.015.427.015.641A13.93,13.93,0,0,1,7.57,67.618,13.931,13.931,0,0,1,0,65.405a10.2,10.2,0,0,0,1.19.061,9.873,9.873,0,0,0,6.12-2.106A4.939,4.939,0,0,1,2.7,59.941a6.216,6.216,0,0,0,.931.076,5.214,5.214,0,0,0,1.3-.168A4.931,4.931,0,0,1,.977,55.011V54.95a4.965,4.965,0,0,0,2.228.626,4.937,4.937,0,0,1-1.526-6.593,14.013,14.013,0,0,0,10.165,5.159,5.565,5.565,0,0,1-.122-1.129,4.935,4.935,0,0,1,8.532-3.373,9.706,9.706,0,0,0,3.129-1.19,4.917,4.917,0,0,1-2.167,2.717,9.883,9.883,0,0,0,2.839-.763A10.6,10.6,0,0,1,21.581,52.951Z" transform="translate(0 -48.082)" fill="#fff"/>
</svg>
